#!OML:ASF F:\VICON\USERDATA\INSTALL\Justin_Nancy\Justin_Nancy.ASF
:FULLY-SPECIFIED
:DEGREES
461
root -17.6116 17.3988 23.555 3.97248 -42.1483 -0.314469
lowerback 3.0372 -2.50717 -1.17595
upperback -1.13539 -3.31723 3.91826
thorax -2.57278 -1.61517 4.87745
lowerneck -15.8972 -1.71249 -8.64956
upperneck 25.4084 -0.847844 2.31267
head 10.8926 -1.01734 2.16582
rclavicle 8.44835e-015 -1.51076e-014
rhumerus -36.6216 -16.879 -74.5855
rradius 25.2824
rwrist 10.3855
rhand -13.0872 11.6679
rfingers 7.12502
rthumb 13.0091 -17.9065
lclavicle 8.44835e-015 -1.51076e-014
lhumerus -28.1168 12.7065 86.5164
lradius 30.2409
lwrist -7.15758
lhand -19.3294 23.795
lfingers 7.12502
lthumb 6.98722 53.6597
rfemur -20.2212 2.46215 25.172
rtibia 11.325
rfoot 0.453277 -2.58835
rtoes -13.0174
lfemur 6.67543 -3.05452 -24.2819
ltibia 27.9146
lfoot -5.17271 -7.82884
ltoes -20.0213
462
root -17.7352 17.4515 23.6766 3.27917 -42.4218 1.0051
lowerback 2.7431 -2.43827 -2.21203
upperback -1.26165 -3.26727 3.66522
thorax -2.50021 -1.57282 5.18536
lowerneck -16.0273 -1.6005 -8.47598
upperneck 25.5234 -0.680346 2.15283
head 10.9491 -0.947006 2.10309
rclavicle 6.70898e-014 -5.56597e-015
rhumerus -36.7846 -17.3769 -74.2426
rradius 25.0119
rwrist 10.6676
rhand -12.8761 12.2184
rfingers 7.12502
rthumb 13.2126 -17.3429
lclavicle 6.70898e-014 -5.56597e-015
lhumerus -28.6142 13.0692 86.4225
lradius 30.1595
lwrist -6.92965
lhand -19.4302 23.9892
lfingers 7.12502
lthumb 6.88991 53.8571
rfemur -20.497 1.83338 24.3109
rtibia 12.7551
rfoot -0.576369 -2.01674
rtoes -10.7738
lfemur 5.78808 -3.79839 -25.2258
ltibia 29.1517
lfoot -1.60643 -8.57563
ltoes -12.541
463
root -17.8524 17.4325 23.7996 2.51505 -42.7576 1.8852
lowerback 2.59692 -2.27039 -2.74477
upperback -1.17486 -3.06603 3.36937
thorax -2.338 -1.46918 5.15952
lowerneck -15.7335 -1.52438 -8.37262
upperneck 25.3077 -0.62365 2.13067
head 10.8062 -0.908415 2.08314
rclavicle 1.6847e-014 -1.27222e-014
rhumerus -37.1586 -17.0423 -74.4326
rradius 25.4834
rwrist 9.87707
rhand -12.9427 11.5881
rfingers 7.12502
rthumb 13.1484 -17.9773
lclavicle 1.6847e-014 -1.27222e-014
lhumerus -28.9976 13.1591 86.2941
lradius 30.2135
lwrist -6.66125
lhand -19.0517 24.3842
lfingers 7.12502
lthumb 7.25526 54.2399
rfemur -20.3518 1.2635 23.8215
rtibia 14.0387
rfoot -1.4177 -1.06541
rtoes -8.14738
lfemur 5.64256 -3.01296 -25.8784
ltibia 30.3503
lfoot -0.385517 -9.75959
ltoes -22.9198
464
root -17.9655 17.4325 23.9116 1.98028 -43.1526 1.99103
lowerback 2.97403 -2.01583 -2.82159
upperback -1.07601 -2.73541 3.30712
thorax -2.48344 -1.30053 5.14067
lowerneck -15.3938 -1.48873 -8.36799
upperneck 25.0442 -0.575928 2.016
head 10.6401 -0.893345 2.04439
rclavicle 1.26377e-013 -7.15625e-015
rhumerus -37.3753 -16.3904 -74.8292
rradius 25.9517
rwrist 8.57341
rhand -13.6691 10.2543
rfingers 7.12502
rthumb 12.4481 -19.355
lclavicle 1.26377e-013 -7.15625e-015
lhumerus -29.4713 13.1363 86.3459
lradius 30.3364
lwrist -6.59807
lhand -18.3424 24.89
lfingers 7.12502
lthumb 7.93986 54.7209
rfemur -19.5848 1.35593 23.8945
rtibia 14.648
rfoot -1.81471 -0.56044
rtoes -6.52984
lfemur 5.40697 -2.51665 -25.7695
ltibia 31.8898
lfoot 1.46516 -10.8721
ltoes -25.2772
465
root -18.0795 17.4584 24.0126 1.85526 -43.3295 1.97412
lowerback 3.10254 -1.84658 -2.89327
upperback -1.04318 -2.51368 3.34294
thorax -2.54151 -1.18733 5.2144
lowerneck -15.4405 -1.57278 -8.65239
upperneck 24.916 -0.663027 2.21893
head 10.6095 -0.930265 2.15239
rclavicle -1.29806e-013 -1.59028e-014
rhumerus -37.3082 -17.1037 -74.4379
rradius 25.6499
rwrist 8.88776
rhand -13.3846 11.041
rfingers 7.12502
rthumb 12.7225 -18.5514
lclavicle -1.29806e-013 -1.59028e-014
lhumerus -29.8558 12.9942 86.5076
lradius 30.3928
lwrist -6.67676
lhand -18.1915 24.8373
lfingers 7.12502
lthumb 8.08554 54.6626
rfemur -18.8928 1.73446 23.9711
rtibia 14.701
rfoot -1.66516 -0.43828
rtoes -5.50512
lfemur 4.47978 -2.51841 -25.4236
ltibia 33.7165
lfoot 4.4259 -11.6896
ltoes -21.3915
466
root -18.1994 17.4959 24.1188 2.67315 -43.29 1.1411
lowerback 2.64881 -1.82539 -2.35329
upperback -1.01279 -2.45775 3.53108
thorax -2.27477 -1.17452 5.08186
lowerneck -15.6924 -1.59791 -8.6957
upperneck 24.821 -0.681434 2.31973
head 10.6245 -0.924793 2.19288
rclavicle 4.45278e-014 -3.18055e-015
rhumerus -37.221 -17.603 -74.1363
rradius 25.5087
rwrist 9.4967
rhand -12.5352 12.7673
rfingers 7.12502
rthumb 13.5413 -16.7724
lclavicle 4.45278e-014 -3.18055e-015
lhumerus -30.0373 12.731 86.6334
lradius 30.3013
lwrist -6.53849
lhand -18.2489 24.4992
lfingers 7.12502
lthumb 8.03009 54.3267
rfemur -18.0945 1.76447 24.7262
rtibia 13.8502
rfoot -0.875167 0.722745
rtoes -1.72769
lfemur 2.89956 -2.82398 -24.4001
ltibia 35.9456
lfoot 7.13951 -12.7144
ltoes -18.0869
467
root -18.3116 17.5229 24.2244 3.67878 -43.3125 -0.296038
lowerback 2.55182 -1.76323 -1.3034
upperback -0.952762 -2.33716 3.76488
thorax -2.20211 -1.13198 4.72016
lowerneck -15.988 -1.54489 -8.21291
upperneck 24.7429 -0.616954 1.99695
head 10.6454 -0.883637 2.00365
rclavicle 9.18385e-014 -3.02153e-014
rhumerus -37.3 -16.8061 -74.6783
rradius 26.1109
rwrist 8.60605
rhand -12.481 12.656
rfingers 7.12502
rthumb 13.5934 -16.8802
lclavicle 9.18385e-014 -3.02153e-014
lhumerus -30.2771 12.3919 86.6901
lradius 30.301
lwrist -6.35391
lhand -17.7002 24.1713
lfingers 7.12502
lthumb 8.55968 53.9778
rfemur -16.9308 1.74463 26.0193
rtibia 12.7002
rfoot 0.257367 1.84836
rtoes 3.87703
lfemur 1.48446 -2.77059 -22.8844
ltibia 38.2958
lfoot 9.39409 -14.1042
ltoes -15.6677
468
root -18.4206 17.534 24.3297 4.14 -43.4405 -1.04805
lowerback 2.64655 -1.6625 -0.743434
upperback -0.966195 -2.18121 3.86486
thorax -2.30003 -1.06048 4.50526
lowerneck -16.2287 -1.54552 -7.84217
upperneck 24.8374 -0.62905 1.74769
head 10.725 -0.885755 1.8507
rclavicle 4.45775e-014 -1.90833e-014
rhumerus -37.303 -16.4788 -74.9385
rradius 26.1891
rwrist 8.17116
rhand -12.5199 12.3799
rfingers 7.12502
rthumb 13.5559 -17.1588
lclavicle 4.45775e-014 -1.90833e-014
lhumerus -30.7576 12.0219 86.7625
lradius 30.3801
lwrist -6.58079
lhand -17.7282 24.3014
lfingers 7.12502
lthumb 8.53269 54.109
rfemur -15.5862 1.97034 26.7035
rtibia 11.2759
rfoot 1.31975 2.16985
rtoes 7.0289
lfemur 0.233035 -2.4962 -21.999
ltibia 40.6006
lfoot 11.3654 -15.2904
ltoes -12.8
469
root -18.5339 17.5486 24.4355 4.09105 -43.5526 -1.01185
lowerback 2.6938 -1.58555 -0.817605
upperback -1.08788 -2.077 3.88034
thorax -2.45769 -1.00332 4.56426
lowerneck -16.0267 -1.56892 -8.06168
upperneck 24.8539 -0.680545 1.96184
head 10.6961 -0.905766 1.95798
rclavicle 1.03269e-013 -6.36111e-015
rhumerus -37.3333 -16.6003 -74.709
rradius 25.8801
rwrist 8.63726
rhand -12.8404 12.2201
rfingers 7.12502
rthumb 13.2471 -17.339
lclavicle 1.03269e-013 -6.36111e-015
lhumerus -31.3819 11.689 86.906
lradius 30.4275
lwrist -7.00617
lhand -18.3749 24.071
lfingers 7.12502
lthumb 7.90852 53.903
rfemur -14.2417 2.08974 26.7174
rtibia 9.82222
rfoot 2.09629 1.97617
rtoes 11.9939
lfemur -1.04321 -2.48274 -21.8084
ltibia 42.796
lfoot 13.5906 -16.0662
ltoes -7.71012
470
root -18.6475 17.5678 24.5427 4.24549 -43.7755 -1.46951
lowerback 2.70786 -1.46052 -0.459183
upperback -1.02918 -1.89802 3.92914
thorax -2.42991 -0.920655 4.40341
lowerneck -15.8452 -1.63791 -8.33674
upperneck 24.6644 -0.814146 2.31993
head 10.6003 -0.944102 2.11332
rclavicle 3.21534e-014 -1.03368e-014
rhumerus -37.3501 -15.8846 -75.1043
rradius 26.2853
rwrist 8.08556
rhand -13.2969 11.1705
rfingers 7.12502
rthumb 12.807 -18.4167
lclavicle 3.21534e-014 -1.03368e-014
lhumerus -31.6998 11.2865 87.0308
lradius 30.3824
lwrist -7.21024
lhand -18.3235 23.8941
lfingers 7.12502
lthumb 7.95808 53.7243
rfemur -12.9732 2.32317 27.0753
rtibia 8.80639
rfoot 2.48095 1.51943
rtoes 16.7712
lfemur -2.14082 -2.2031 -21.1738
ltibia 44.8783
lfoot 15.7882 -16.9388
ltoes -2.42993
